<svg width="488" height="160" viewBox="0 0 488 160" fill="none" xmlns="http://www.w3.org/2000/svg">
<path fill-rule="evenodd" clip-rule="evenodd" d="M417.433 10.5529L419.674 15.991L423.195 19.8297L424.476 21.4292L427.677 24.948L427.997 25.5878L431.518 30.706L434.079 34.5447L434.719 37.1038L435.359 39.9828L437.28 46.0608L439.521 53.7381L440.481 56.6171L441.121 58.2166L445.603 66.8536L447.524 72.9315L448.484 76.7702L449.124 79.6492L451.365 85.4073L454.246 89.8857L458.727 95.6438L461.288 97.883L464.489 100.762L468.651 104.281L472.812 108.119L473.132 108.439L476.333 111.318L480.175 116.437L483.376 123.154L484.656 127.953L485.297 129.872L486.897 137.869L487.537 141.068L487.857 143.947L483.056 144.587L480.175 145.227L479.214 145.547L477.294 146.186L473.132 148.426L471.532 149.705L469.291 150.345H467.37H466.73L463.849 150.025H461.288L458.407 150.985H458.087L453.926 152.904L451.045 153.864L449.124 154.504L445.923 155.463L441.121 155.783L440.801 155.463L439.841 154.823V154.184V153.864L438.56 151.944L438.24 151.625L437.6 150.665L437.28 149.065L436.96 146.506V145.547L434.079 139.789L432.478 136.91L431.838 135.31L430.238 131.791L429.917 131.152L429.277 130.192H428.957H427.357H425.436H424.476L423.515 129.232L421.915 127.313L421.595 126.673L420.954 125.074L420.314 124.114L419.994 123.794L419.674 123.474L418.714 122.834L415.192 121.875L414.552 123.154V123.794V124.754L414.232 125.394L413.912 125.713L412.311 127.953L411.991 128.273L411.351 127.633L409.11 126.033H408.79L407.83 125.713H406.549H404.949H403.348L403.028 125.394V124.114L403.989 123.154L405.269 122.515L405.589 122.195L406.549 121.875H407.51H408.15L409.11 121.235L409.751 120.275L411.671 116.437L412.632 115.157L413.912 112.918L414.232 111.638L413.912 110.039L413.592 108.759L413.272 107.8V107.16L412.952 106.2L412.311 104.921L410.711 103.321L410.071 102.361L409.43 101.722L408.47 101.082L406.87 100.442L403.989 100.122L402.708 99.8024H402.388L399.187 98.8427L397.907 98.5228L397.586 98.2029L396.626 97.5631L396.306 96.9233L387.663 87.0067L385.422 86.3669H384.462L381.901 85.7272H381.581H381.261H380.941L379.98 85.4073H379.34L377.099 84.7675H376.139L375.179 84.4476L374.539 84.1277L373.898 83.8078L371.337 84.4476L368.136 85.4073L366.856 86.3669L365.575 86.6868L363.655 87.6465L361.734 88.2863L359.493 88.6062L355.332 89.246H352.131L347.649 89.5659L344.128 89.8857L339.326 91.4852L334.525 94.0443L332.604 94.6841L331.324 95.3239L329.723 95.6438L326.522 95.9636H323.001L315.958 95.004H313.077L309.556 94.6841L305.395 95.004L303.794 95.3239L298.352 96.2836L295.471 97.2432L292.91 98.5228L288.749 100.122L287.149 100.762L282.987 102.361L281.707 103.001L275.304 103.961L268.262 104.921H266.661L264.421 105.24L261.54 105.88L261.22 106.2L260.259 106.84L258.339 110.679L255.458 115.477L254.497 120.275L253.857 124.114H253.537L252.897 124.754L251.616 126.353L250.976 126.673L250.016 127.953V128.273L248.735 129.232V129.552L248.095 130.512L247.135 131.152L245.214 132.111L241.693 133.711L240.412 134.351L237.852 136.27L236.891 136.91L235.931 137.23L233.37 136.91L231.449 136.59L230.489 136.27L229.849 134.67L229.529 134.351L229.209 133.711L228.568 132.751L228.248 132.111L227.928 131.791H227.608L226.328 131.472L226.008 131.152H225.367L222.806 129.232L219.605 128.273L218.325 127.953L215.124 126.993L212.243 126.353L208.401 125.713L205.2 124.434L201.679 122.195L199.118 120.275L198.158 119.955L196.557 119.316L193.997 118.996H192.716L191.116 118.356H190.155H189.515H187.914L186.634 118.676L185.994 119.316L184.073 120.275L181.192 122.195H180.552L178.631 122.834H178.311L174.15 124.114H172.549L170.308 123.794L165.827 123.474L164.867 122.834H164.546H163.906V123.154L163.586 123.474L163.266 123.794H162.946L162.626 124.114H161.665H161.025L159.745 124.434L159.425 124.754L158.784 125.074V125.713L157.824 126.033L157.184 126.353L156.544 126.673H156.224L154.623 128.912L153.022 130.192L152.702 130.512V130.832H152.062V131.152H151.742V131.472L151.102 132.431L150.782 132.751L150.141 133.391L149.181 134.031L148.861 134.99L148.221 136.27V136.59L147.901 136.91V137.23L147.581 137.549V138.829H145.98L145.66 139.149L145.34 139.469L144.7 140.109V140.428L144.059 141.708L143.419 142.348H143.099L142.779 142.668L140.858 142.988H140.538L139.578 143.627V143.947L139.258 144.267L138.618 144.587H137.977H137.337H136.697L135.737 144.907L134.456 145.227L134.136 145.547L133.496 145.867L133.176 146.186L132.215 146.826L131.575 147.146L131.255 148.106L130.935 149.385L130.295 151.305L129.334 151.944L128.374 152.264L126.773 152.584H124.213L122.932 152.264L118.771 152.904L117.49 153.544H116.85H116.53H115.89L112.689 152.904L109.808 152.264H107.887L106.927 152.584L106.286 153.224L105.966 152.904L105.326 152.584L105.006 152.264L103.726 151.625H103.405H102.445H100.845H99.244H98.9239L96.6831 150.985L95.7228 150.345L94.1223 149.705L93.8021 149.385H92.5217H91.8815H91.2413L87.4 149.705L87.0798 149.385L85.7994 149.065L84.1988 149.385L81.9581 149.705L79.3972 150.345L77.1564 151.305H76.8363L74.9157 152.584L73.6352 153.864L72.3548 154.504L72.0347 154.823L70.7542 155.143L68.8336 155.463L67.8732 155.143L63.7118 154.184H62.7515L62.1113 154.504L61.471 154.823L60.8308 155.143L60.5107 155.463L58.5901 157.063L58.27 157.383L55.0688 158.662L53.7884 158.982H53.4683H53.1482L52.1879 158.342L51.2276 158.022H50.5873L49.9471 158.342L48.6667 159.302H48.3465L47.0661 158.662L45.1454 158.022H44.5052L44.1851 157.383L43.865 156.103L43.5449 155.783L42.9047 154.184L42.5846 153.224L41.9443 152.264L41.6242 151.305L41.3041 150.985L40.984 150.025L40.6639 149.705L40.3438 149.065L39.7036 148.746L38.4231 147.146L36.8226 146.186L36.1824 145.867L34.5818 144.907L34.2617 144.587L32.0209 143.627L31.3807 142.988L31.0606 142.028L30.7405 141.388L30.1003 141.068H29.7802L29.1399 140.748H28.8199L28.1796 140.428V140.109L27.8595 139.789V137.23L26.5791 136.59V136.27H25.9389H25.6187H23.0579L22.7378 135.63L22.4176 134.351L21.7774 132.111L21.1372 130.832H20.497L19.5367 130.512H18.8964H17.9361L17.2959 130.192L16.6557 129.872V129.232V128.912V127.953L16.9758 126.033L17.2959 124.754V124.434L16.9758 123.474L16.6557 119.955L16.9758 118.356L17.2959 117.716L17.616 116.437V115.797L16.3356 114.837L14.735 114.197L14.4149 113.878V113.558V112.918L14.0948 112.598L13.7747 111.318L12.4942 110.039L12.1741 109.719V109.079V108.759L12.4942 107.48L12.8144 106.84L13.1345 105.88L12.4942 104.281V103.961L11.854 102.361V101.402V100.762V100.122V99.8024L12.1741 98.2029L12.8144 96.9233L13.4546 96.2836L14.0948 95.6438V94.6841L13.7747 93.4045L12.8144 92.4449H12.4942L11.854 91.4852V90.8454V90.5255L12.1741 89.5659L12.4942 88.9261L12.8144 88.6062L13.4546 87.9664V87.6465V87.3266V86.047L12.8144 85.4073L12.4942 84.7675V84.4476L13.1345 83.168L14.0948 82.2084L15.0551 80.6089L15.3752 79.6492V79.0095V78.3697L14.735 78.0498H14.4149H13.7747L10.8937 77.41L9.93337 76.7702V75.8105V74.2111L10.2535 72.2918H9.61325L8.97303 72.6117L8.65292 72.9315L7.05238 73.5713L5.77194 73.2514L5.45182 72.9315L4.8116 72.2918L4.4915 71.652L4.8116 71.3321V70.6923V70.3724L5.13171 70.0525L5.77194 69.0929L6.41215 68.773L7.05238 68.4531L7.6926 67.8133V67.4934L8.0127 67.1735L8.33282 66.2138L8.0127 65.894L7.6926 65.5741L6.41215 63.6547L6.09205 63.0149L5.45182 61.4155L4.8116 60.7757H4.4915L3.53117 60.1359L0.970286 59.4961L0.330078 58.8564V58.5365L0.650177 57.8967L0.970286 57.5768L1.61051 57.2569L2.57083 56.2972V55.9773L2.89094 55.6575L4.17138 53.0983H5.13171L5.77194 52.7784L6.41215 52.1387V51.4989L6.09205 50.5392L5.77194 49.2596L5.13171 48.6199L4.8116 47.9801L4.4915 47.3403V47.0204V46.7005L4.8116 46.3806H5.13171L6.41215 45.421L7.05238 44.7812L7.6926 44.4613L8.33282 43.5016V42.8618V41.5823V41.2624L8.0127 40.9425V40.6226V39.9828L7.05238 38.3834V38.0635L6.73226 37.7436V37.4237H7.37249L8.33282 36.7839H9.61325H10.2535H11.5339H11.854L15.3752 36.1441H16.9758L18.8964 37.1038L19.5367 37.7436L20.8171 38.7033L21.1372 39.0232L23.0579 40.9425L23.378 41.2624L24.6584 43.1817L26.259 44.7812L27.5394 46.0608V47.3403V47.6602L27.8595 48.9398V49.2596L28.1796 49.5796L28.4997 49.8994L28.8199 50.2193L29.4601 50.5392L30.1003 50.8591L30.4204 51.179L31.3807 50.8591H32.0209H32.6612H32.9813H33.6215H34.2617H34.9019L35.2221 50.5392L37.7829 48.9398L38.7433 47.6602L39.0633 47.3403L39.7036 46.7005L40.3438 46.3806H42.2645H43.2248L45.1454 45.7408L46.4259 45.1011L47.7063 44.4613L49.627 43.5016H50.5873L51.8677 43.1817L56.3493 43.5016L62.1113 44.4613L66.2727 44.7812H67.233H70.7542L73.6352 44.4613L74.5956 44.1414L77.1564 43.8215L82.9184 43.1817L84.8391 42.8618H85.7994L89.3206 44.1414L90.9212 44.7812L93.1619 45.421L93.482 45.7408H96.363L99.244 44.7812L101.805 43.1817L104.686 41.9022L105.326 41.5823L107.887 40.6226L111.408 39.9828H115.57H118.451L120.691 39.0232L122.612 38.7033L124.533 37.7436L126.453 37.1038L129.975 35.8243L131.575 34.2248L133.176 32.6253L133.816 31.9856L134.136 31.3458L135.096 29.1066L135.416 28.1469L135.737 26.8673V24.6281L135.096 23.3485L134.776 22.069L132.215 18.2303L130.295 15.3513L129.014 12.1524L128.374 9.27334L129.014 3.51531L129.334 0.316406L129.975 0.636302L130.935 0.956197L131.575 1.27608L132.215 1.59598L132.856 1.91586L133.176 2.23576H133.496L134.456 2.87554H134.776L136.697 3.19542H139.578L141.178 3.51531L142.139 3.83521L142.779 4.1551L143.739 4.79487V5.11477H144.059L147.26 7.03412H147.581L149.181 7.354L151.422 7.67389H151.742H152.382L153.022 7.99378H153.343H153.663L155.263 8.63357L156.224 8.95345V9.27334H156.864L158.144 9.59323L159.425 9.91313H159.745H160.065L161.025 10.233L162.306 10.5529L163.906 10.8728L165.187 11.5126L166.787 11.8325H167.107L168.388 12.1524H169.348L171.589 11.1927L172.549 10.8728L174.15 9.91313L174.79 9.59323H175.43H177.351H177.991L184.073 9.91313H184.713L186.314 10.233H186.954L189.515 10.5529H190.475H191.116H193.036H193.997L196.237 10.233H197.198L199.118 9.91313L200.399 9.59323H201.679V9.27334L203.6 8.95345L204.56 8.63357L205.2 8.31367L206.481 7.99378H206.801H207.121L209.042 7.354H209.362L210.322 7.03412H210.642H210.962L211.923 6.71422H212.243L213.523 6.39433L213.843 6.07443H214.804H215.764H216.084H216.404H217.365H217.685H218.005L218.325 6.39433H218.645H219.285L219.925 6.71422H220.246H221.526L227.608 7.99378L230.809 8.63357L234.33 9.91313L237.211 10.5529L239.132 10.8728L244.894 11.8325L245.214 12.1524L246.815 13.112L249.055 14.3916L253.217 17.5905L255.458 18.2303H257.378L261.22 17.9104L265.701 17.2706L270.183 16.3109L273.064 15.6712L276.265 15.0314H276.905H279.786H281.066H282.027H282.347L283.947 16.6308L284.588 17.2706L284.908 17.5905L285.548 17.9104V18.2303H285.868L286.508 19.5098H286.828V19.8297L287.469 20.7894L287.789 21.4292L288.109 22.069L288.429 22.3888H288.749L289.709 23.0286H290.03L290.99 23.3485H291.63H292.59H292.91H293.231H294.191L295.471 23.0286H296.432H297.392L298.032 22.7087H298.352L298.672 22.3888L300.593 21.4292L301.553 21.1093L302.194 20.7894H302.834L303.474 20.4695H305.075L305.715 20.1496H306.035L307.636 19.19L308.916 18.5502L310.196 17.9104L310.837 17.5905V17.2706L312.757 16.3109L313.718 15.6712L314.678 15.0314L316.278 14.3916H317.559L319.8 14.7115L320.76 15.0314H321.4H322.361L323.961 14.7115L324.281 14.3916L325.882 13.4319L326.522 13.112L327.802 12.4722H328.123L328.443 12.1524H330.363L331.644 12.4722H335.485H336.766L338.366 12.1524L341.247 11.1927L343.808 10.233H344.768L346.369 10.8728L347.649 12.1524L350.21 14.0717L351.811 15.0314L352.771 15.3513L353.411 15.6712H354.372L357.253 15.3513L359.813 14.0717H360.134L362.374 12.4722L363.335 11.8325L364.935 10.8728L366.536 10.233L367.816 9.91313L372.938 8.63357L373.898 8.31367H375.499H375.819H377.74H379.02H381.261L383.502 6.71422L383.822 6.39433L384.462 5.43466L385.102 5.11477L386.062 4.79487H386.383L386.703 5.11477L388.303 5.43466L390.224 7.03412V7.354L391.824 8.63357L393.105 8.95345L395.026 9.27334H395.666L396.626 8.95345L397.586 8.63357L398.867 7.67389H399.187L399.827 7.354L400.788 7.99378L403.348 8.95345L405.909 9.91313L408.15 10.8728L409.11 11.1927L410.071 11.8325L412.311 12.1524L414.232 11.8325H415.192L417.433 10.5529Z" fill="white"/>
</svg>
