<svg width="209" height="144" viewBox="0 0 209 144" fill="none" xmlns="http://www.w3.org/2000/svg">
<g style="mix-blend-mode:multiply">
<path d="M150.496 107.063C148.116 108.803 145.786 110.483 143.496 112.193C140.854 114.084 137.737 115.203 134.496 115.423C129.907 115.8 125.291 115.686 120.726 115.083C118.136 114.803 115.566 114.393 112.976 114.133C108.67 113.617 104.552 112.066 100.976 109.613C96.1762 106.376 91.7815 102.576 87.8858 98.2934C84.4058 94.6034 81.0558 90.7934 77.5958 87.0934C73.8688 83.1054 69.6244 79.6345 64.9758 76.7734C63.1302 75.6359 61.0134 75.0144 58.8458 74.9734C58.0058 74.9734 57.7558 74.6034 58.2358 73.8934C58.8185 72.9765 59.5102 72.1337 60.2958 71.3834C65.1766 66.7496 71.6263 64.1283 78.3558 64.0434C88.3119 63.9516 98.1263 61.6747 107.106 57.3734C110.006 56.0134 112.816 54.4634 115.616 52.9234C120.644 49.9866 126.631 49.1631 132.266 50.6334C136.022 51.6053 139.398 53.6874 141.953 56.6078C144.508 59.5282 146.122 63.1511 146.586 67.0034C147.179 71.503 146.147 76.0667 143.676 79.8734C140.363 85.1999 135.468 89.3572 129.676 91.7634C126.462 93.1827 122.821 93.2939 119.526 92.0734C115.939 90.883 112.733 88.7606 110.236 85.9234C108.977 84.5312 108.063 82.8632 107.566 81.0534C107.042 79.397 107.143 77.6058 107.851 76.0191C108.558 74.4323 109.823 73.1602 111.406 72.4434C113.977 71.1784 116.838 70.6193 119.696 70.8234C120.978 70.9222 122.252 71.1161 123.506 71.4034C124.02 71.5385 124.502 71.7729 124.926 72.0934C125.108 72.1893 125.261 72.3331 125.367 72.5093C125.473 72.6856 125.53 72.8875 125.53 73.0934C125.53 73.2993 125.473 73.5012 125.367 73.6775C125.261 73.8537 125.108 73.9975 124.926 74.0934C124.465 74.3995 123.954 74.6229 123.416 74.7534C122.216 75.0734 120.976 75.2734 119.776 75.5934C118.112 75.9486 116.581 76.7627 115.356 77.9434C113.216 80.1834 113.636 82.4334 116.456 83.7234C118.458 84.5552 120.62 84.9309 122.786 84.8234C125.746 84.7447 128.68 84.2395 131.496 83.3234C133.451 82.7686 135.223 81.7025 136.63 80.2347C138.036 78.767 139.025 76.9508 139.496 74.9734C140.865 70.2423 140.456 65.1737 138.346 60.7234C137.705 59.2209 136.631 57.9431 135.262 57.0527C133.893 56.1623 132.289 55.6996 130.656 55.7234C126.798 55.6493 122.957 56.2656 119.316 57.5434C114.434 59.0957 109.785 61.3024 105.496 64.1034C102.264 66.1398 98.6124 67.4184 94.8158 67.8434C91.1358 68.3434 87.4358 68.6234 83.7358 68.9234C80.136 69.0479 76.5483 69.4086 72.9958 70.0034C72.1951 70.1865 71.4068 70.4202 70.6358 70.7034C70.0158 70.9334 69.9758 71.2534 70.4858 71.7034C70.901 72.0352 71.3425 72.3329 71.8058 72.5934C79.6637 77.208 86.3991 83.5096 91.5258 91.0434C98.5258 100.993 108.196 106.503 120.256 107.793C127.568 108.652 134.978 107.619 141.776 104.793C145.397 103.198 148.766 101.082 151.776 98.5134C156.306 94.7734 160.716 90.9034 165.186 87.1034C166.786 85.7534 168.386 84.4134 170.026 83.1034C172.368 81.1848 174.962 79.5967 177.736 78.3834C181.23 76.9111 184.392 74.7517 187.036 72.0334C188.746 70.2934 190.646 68.7334 192.436 67.0334C193.286 66.2434 194.096 65.4234 194.876 64.5634C195.277 64.138 195.614 63.6562 195.876 63.1334C196.226 62.4134 195.876 62.0134 195.106 62.1334C191.115 62.5283 187.094 62.5116 183.106 62.0834C175.814 61.3599 168.649 59.6788 161.796 57.0834C155.563 54.741 149.976 50.9501 145.496 46.0234C143.6 43.9063 141.597 41.887 139.496 39.9734C137.036 37.7545 134.153 36.0561 131.021 34.9803C127.888 33.9045 124.57 33.4736 121.266 33.7134C115.396 33.9334 109.816 35.4734 104.266 37.1534C98.9092 38.9432 93.6945 41.1327 88.6658 43.7034C82.4992 46.7909 76.1156 49.4246 69.5658 51.5834C63.5929 53.5442 57.3175 54.4213 51.0358 54.1734C48.7958 54.0434 46.5558 53.7934 44.3058 53.7534C30.1703 53.3479 16.2561 57.3303 4.47581 65.1534C3.23088 65.969 2.06274 66.8961 0.98581 67.9234C-0.55419 69.3834 -0.284193 70.4334 1.75581 70.9234C3.46581 71.3734 5.23581 71.6134 6.97581 71.9934C14.0993 73.4003 20.8007 76.4361 26.5558 80.8634C29.4916 83.19 31.9615 86.0501 33.8358 89.2934C36.1777 93.5378 38.9095 97.5552 41.9958 101.293C43.4309 102.996 45.0775 104.508 46.8958 105.793C49.6907 107.781 53.0362 108.847 56.4658 108.843C60.318 108.77 64.1635 109.197 67.9058 110.113C71.2569 110.937 74.3859 112.487 77.0714 114.654C79.7568 116.821 81.933 119.552 83.4458 122.653C84.8758 125.443 86.3658 128.203 87.9558 130.903C91.7058 137.273 97.3558 140.903 104.566 142.313C114.081 144.161 123.925 143.259 132.946 139.713C138.166 137.723 143.28 135.463 148.266 132.943C151.266 131.366 154.543 130.382 157.916 130.043C160.749 129.769 163.608 130.08 166.316 130.958C169.024 131.835 171.522 133.26 173.656 135.143C173.798 135.308 173.991 135.421 174.204 135.466C174.417 135.511 174.639 135.486 174.836 135.393C183.502 132.32 192.169 129.26 200.836 126.213C201.399 126.008 201.941 125.75 202.456 125.443C204.286 124.383 206.086 123.283 207.916 122.233C208.336 121.983 208.436 121.723 208.196 121.323C207.893 120.707 207.542 120.115 207.146 119.553C206.49 118.713 205.749 117.942 204.936 117.253C201.165 114.136 196.588 112.15 191.736 111.523C188.72 111.268 185.682 111.491 182.736 112.183C179.039 112.979 175.294 113.537 171.526 113.853C168.265 114.122 164.982 113.926 161.776 113.273C157.446 112.469 153.491 110.292 150.496 107.063Z" fill="black"/>
<path d="M69.5657 23.9234C69.6957 23.6834 69.8157 23.4234 69.9457 23.1734C71.1757 20.8634 72.9457 19.2434 75.6557 19.0034C77.0247 18.8725 78.4041 19.1036 79.6557 19.6734C80.8357 20.2034 80.9857 21.0534 80.0857 21.9934C79.0939 22.888 77.9397 23.5839 76.6857 24.0434C75.7672 24.426 74.9137 24.9489 74.1557 25.5935C72.5557 27.0835 72.8057 28.9534 74.6757 30.0834C76.4675 31.0865 78.5763 31.3622 80.5657 30.8534C83.8158 30.1551 86.7238 28.353 88.7957 25.7534C89.7872 24.5251 90.7151 23.2468 91.5757 21.9234C92.6357 20.3934 93.6257 18.8134 94.7357 17.3034C96.0785 15.4424 98.069 14.1511 100.316 13.6834C103.047 13.1444 105.67 12.1542 108.076 10.7534C108.898 10.2649 109.657 9.67718 110.336 9.00344C111.246 8.07344 110.956 7.21344 109.676 7.05344C108.709 6.91822 107.726 6.93847 106.766 7.11344C102.061 7.94702 97.2132 7.27149 92.9157 5.18345C92.1057 4.82345 91.2657 4.50344 90.4957 4.08344C86.5241 1.99887 82.1753 0.730613 77.7057 0.353447C73.2169 -0.171886 68.6789 -0.111387 64.2057 0.53344C61.2057 0.99344 58.6757 2.17344 57.0457 4.86344C56.4603 5.66399 56.1135 6.61399 56.0457 7.60345C56.0457 8.60345 56.6057 9.26345 57.6657 9.15345C58.4369 9.07154 59.1917 8.87609 59.9057 8.57345C61.1557 8.05345 62.3557 7.41344 63.5857 6.83344C64.0068 6.63367 64.4453 6.473 64.8957 6.35345C65.3757 6.23345 65.6657 6.47344 65.6957 6.97344C65.7209 7.15256 65.7209 7.33433 65.6957 7.51345C65.3681 9.44098 64.7618 11.3106 63.8957 13.0634C63.4739 13.9812 62.739 14.7188 61.8228 15.1439C60.9066 15.5691 59.8689 15.654 58.8957 15.3834C57.5957 15.1134 56.3257 14.6534 55.0257 14.3834C54.1144 14.1931 53.1866 14.0927 52.2557 14.0834C51.8757 14.0834 51.4857 14.3934 51.0957 14.5734C51.2657 14.9334 51.3457 15.4234 51.6257 15.6334C52.6171 16.4177 53.6705 17.12 54.7757 17.7335C57.4968 19.0138 60.3965 19.8736 63.3757 20.2834C63.8557 20.3734 64.3757 20.4834 64.8157 20.5634C65.7089 20.7143 66.56 21.0525 67.3132 21.5558C68.0664 22.059 68.7045 22.716 69.1857 23.4835L69.4957 23.9134L69.5657 23.9234Z" fill="black"/>
<path d="M29.646 47.9734L35.486 47.5834C37.636 47.4234 39.786 47.2434 41.936 47.1034C42.1316 47.1109 42.3243 47.0544 42.4849 46.9425C42.6455 46.8307 42.7652 46.6695 42.826 46.4834C43.826 44.3834 44.826 42.2734 45.916 40.2134C46.6366 38.7971 47.7115 37.5914 49.036 36.7134C49.3622 36.5003 49.6371 36.2176 49.8412 35.8857C50.0452 35.5537 50.1732 35.1807 50.216 34.7934C50.786 31.5034 54.586 28.7934 57.586 29.4934C58.207 29.6516 58.7868 29.9415 59.286 30.3434C59.4746 30.4698 59.6279 30.6421 59.7317 30.844C59.8355 31.0459 59.8863 31.2709 59.8793 31.4978C59.8723 31.7247 59.8077 31.9461 59.6917 32.1413C59.5757 32.3364 59.412 32.4989 59.216 32.6134C58.856 32.8934 58.426 33.0934 58.036 33.3434C56.256 34.4534 56.036 36.0634 57.306 37.6834C57.438 37.8632 57.6183 38.0019 57.826 38.0834C59.4867 38.6812 61.2829 38.7956 63.006 38.4134C63.6827 38.2432 64.3086 37.9126 64.8307 37.4497C65.3529 36.9867 65.756 36.4049 66.006 35.7534C67.606 31.8934 66.386 26.0834 63.356 23.2334C61.3262 21.426 58.7486 20.352 56.036 20.1834C42.036 18.7034 33.666 28.2334 31.186 36.5634C30.6589 38.7186 30.2781 40.9069 30.046 43.1134C29.876 44.2334 29.786 45.3634 29.676 46.4934C29.686 46.9534 29.676 47.4134 29.646 47.9734Z" fill="black"/>
</g>
</svg>
