<svg width="209" height="144" viewBox="0 0 209 144" fill="none" xmlns="http://www.w3.org/2000/svg">
<g style="mix-blend-mode:multiply">
<path d="M57.8279 107.063C60.2079 108.803 62.5379 110.483 64.8279 112.193C67.4702 114.084 70.5864 115.203 73.8279 115.423C78.4169 115.8 83.0331 115.686 87.5979 115.083C90.1879 114.803 92.7579 114.393 95.3479 114.133C99.6541 113.617 103.771 112.066 107.348 109.613C112.148 106.376 116.542 102.576 120.438 98.2934C123.918 94.6034 127.268 90.7934 130.728 87.0934C134.455 83.1054 138.699 79.6345 143.348 76.7734C145.193 75.6359 147.31 75.0144 149.478 74.9734C150.318 74.9734 150.568 74.6034 150.088 73.8934C149.505 72.9765 148.814 72.1337 148.028 71.3834C143.147 66.7496 136.697 64.1283 129.968 64.0434C120.012 63.9516 110.197 61.6747 101.218 57.3734C98.3179 56.0134 95.5079 54.4634 92.7079 52.9234C87.6797 49.9866 81.6923 49.1631 76.0579 50.6334C72.3015 51.6053 68.9255 53.6874 66.3708 56.6078C63.8162 59.5282 62.2016 63.1511 61.7379 67.0034C61.1447 71.503 62.1766 76.0667 64.6479 79.8734C67.9603 85.1999 72.8554 89.3572 78.6479 91.7634C81.8622 93.1827 85.503 93.2939 88.7979 92.0734C92.385 90.883 95.5911 88.7606 98.0879 85.9234C99.3465 84.5312 100.261 82.8632 100.758 81.0534C101.282 79.397 101.181 77.6058 100.473 76.0191C99.7655 74.4323 98.5006 73.1602 96.9179 72.4434C94.3469 71.1784 91.486 70.6193 88.6279 70.8234C87.3453 70.9222 86.0718 71.1161 84.8179 71.4034C84.3041 71.5385 83.8217 71.7729 83.3979 72.0934C83.2157 72.1893 83.0632 72.3331 82.9568 72.5093C82.8504 72.6856 82.7941 72.8875 82.7941 73.0934C82.7941 73.2993 82.8504 73.5012 82.9568 73.6775C83.0632 73.8537 83.2157 73.9975 83.3979 74.0934C83.8591 74.3995 84.3701 74.6229 84.9079 74.7534C86.1079 75.0734 87.3479 75.2734 88.5479 75.5934C90.2118 75.9486 91.7429 76.7627 92.9679 77.9434C95.1079 80.1834 94.6879 82.4334 91.8679 83.7234C89.8657 84.5552 87.7034 84.9309 85.5379 84.8234C82.5776 84.7447 79.6441 84.2395 76.8279 83.3234C74.8724 82.7686 73.1003 81.7025 71.6941 80.2347C70.2879 78.767 69.2985 76.9508 68.8279 74.9734C67.4586 70.2423 67.8676 65.1737 69.9779 60.7234C70.6188 59.2209 71.6923 57.9431 73.0618 57.0527C74.4312 56.1623 76.0346 55.6996 77.6679 55.7234C81.5262 55.6493 85.3666 56.2656 89.0079 57.5434C93.8898 59.0957 98.5388 61.3024 102.828 64.1034C106.06 66.1398 109.711 67.4184 113.508 67.8434C117.188 68.3434 120.888 68.6234 124.588 68.9234C128.188 69.0479 131.775 69.4086 135.328 70.0034C136.129 70.1865 136.917 70.4202 137.688 70.7034C138.308 70.9334 138.348 71.2534 137.838 71.7034C137.423 72.0352 136.981 72.3329 136.518 72.5934C128.66 77.208 121.925 83.5096 116.798 91.0434C109.798 100.993 100.128 106.503 88.0679 107.793C80.756 108.652 73.3462 107.619 66.5479 104.793C62.9268 103.198 59.5579 101.082 56.5479 98.5134C52.0179 94.7734 47.6079 90.9034 43.1379 87.1034C41.5379 85.7534 39.9379 84.4134 38.2979 83.1034C35.9559 81.1848 33.3617 79.5967 30.5879 78.3834C27.0938 76.9111 23.9312 74.7517 21.2879 72.0334C19.5779 70.2934 17.6779 68.7334 15.8879 67.0334C15.0379 66.2434 14.2279 65.4234 13.4479 64.5634C13.0467 64.138 12.7098 63.6562 12.4479 63.1334C12.0979 62.4134 12.4479 62.0134 13.2179 62.1334C17.2091 62.5283 21.2302 62.5116 25.2179 62.0834C32.51 61.3599 39.675 59.6788 46.5279 57.0834C52.7612 54.741 58.3482 50.9501 62.8279 46.0234C64.7241 43.9063 66.7266 41.887 68.8279 39.9734C71.2874 37.7545 74.1703 36.0561 77.3031 34.9803C80.436 33.9045 83.7542 33.4736 87.0579 33.7134C92.9279 33.9334 98.5079 35.4734 104.058 37.1534C109.415 38.9432 114.629 41.1327 119.658 43.7034C125.825 46.7909 132.208 49.4246 138.758 51.5834C144.731 53.5442 151.006 54.4213 157.288 54.1734C159.528 54.0434 161.768 53.7934 164.018 53.7534C178.153 53.3479 192.068 57.3303 203.848 65.1534C205.093 65.969 206.261 66.8961 207.338 67.9234C208.878 69.3834 208.608 70.4334 206.568 70.9234C204.858 71.3734 203.088 71.6134 201.348 71.9934C194.224 73.4003 187.523 76.4361 181.768 80.8634C178.832 83.19 176.362 86.0501 174.488 89.2934C172.146 93.5378 169.414 97.5552 166.328 101.293C164.893 102.996 163.246 104.508 161.428 105.793C158.633 107.781 155.288 108.847 151.858 108.843C148.006 108.77 144.16 109.197 140.418 110.113C137.067 110.937 133.938 112.487 131.252 114.654C128.567 116.821 126.391 119.552 124.878 122.653C123.448 125.443 121.958 128.203 120.368 130.903C116.618 137.273 110.968 140.903 103.758 142.313C94.2431 144.161 84.3987 143.259 75.3779 139.713C70.1577 137.723 65.0442 135.463 60.0579 132.943C57.0573 131.366 53.781 130.382 50.4079 130.043C47.5749 129.769 44.7156 130.08 42.0079 130.958C39.3002 131.835 36.8018 133.26 34.6679 135.143C34.5253 135.308 34.3328 135.421 34.1199 135.466C33.9069 135.511 33.685 135.486 33.4879 135.393C24.8212 132.32 16.1546 129.26 7.48792 126.213C6.92509 126.008 6.38273 125.75 5.86792 125.443C4.03792 124.383 2.23793 123.283 0.407928 122.233C-0.0120715 121.983 -0.11207 121.723 0.12793 121.323C0.430936 120.707 0.782008 120.115 1.17792 119.553C1.83369 118.713 2.57425 117.942 3.38791 117.253C7.15919 114.136 11.7354 112.15 16.5879 111.523C19.604 111.268 22.6414 111.491 25.5879 112.183C29.285 112.979 33.0294 113.537 36.7979 113.853C40.059 114.122 43.3416 113.926 46.5479 113.273C50.8776 112.469 54.8329 110.292 57.8279 107.063Z" fill="black"/>
<path d="M138.758 23.9234C138.628 23.6834 138.508 23.4234 138.378 23.1734C137.148 20.8634 135.378 19.2434 132.668 19.0034C131.299 18.8725 129.92 19.1036 128.668 19.6734C127.488 20.2034 127.338 21.0534 128.238 21.9934C129.23 22.888 130.384 23.5839 131.638 24.0434C132.557 24.426 133.41 24.9489 134.168 25.5935C135.768 27.0835 135.518 28.9534 133.648 30.0834C131.856 31.0865 129.747 31.3622 127.758 30.8534C124.508 30.1551 121.6 28.353 119.528 25.7534C118.537 24.5251 117.609 23.2468 116.748 21.9234C115.688 20.3934 114.698 18.8134 113.588 17.3034C112.245 15.4424 110.255 14.1511 108.008 13.6834C105.277 13.1444 102.654 12.1542 100.248 10.7534C99.4258 10.2649 98.6668 9.67718 97.988 9.00344C97.078 8.07344 97.368 7.21344 98.648 7.05344C99.615 6.91822 100.597 6.93847 101.558 7.11344C106.263 7.94702 111.11 7.27149 115.408 5.18345C116.218 4.82345 117.058 4.50344 117.828 4.08344C121.8 1.99887 126.148 0.730613 130.618 0.353447C135.107 -0.171886 139.645 -0.111387 144.118 0.53344C147.118 0.99344 149.648 2.17344 151.278 4.86344C151.863 5.66399 152.21 6.61399 152.278 7.60345C152.278 8.60345 151.718 9.26345 150.658 9.15345C149.887 9.07154 149.132 8.87609 148.418 8.57345C147.168 8.05345 145.968 7.41344 144.738 6.83344C144.317 6.63367 143.878 6.473 143.428 6.35345C142.948 6.23345 142.658 6.47344 142.628 6.97344C142.603 7.15256 142.603 7.33433 142.628 7.51345C142.956 9.44098 143.562 11.3106 144.428 13.0634C144.85 13.9812 145.585 14.7188 146.501 15.1439C147.417 15.5691 148.455 15.654 149.428 15.3834C150.728 15.1134 151.998 14.6534 153.298 14.3834C154.209 14.1931 155.137 14.0927 156.068 14.0834C156.448 14.0834 156.838 14.3934 157.228 14.5734C157.058 14.9334 156.978 15.4234 156.698 15.6334C155.707 16.4177 154.653 17.12 153.548 17.7335C150.827 19.0138 147.927 19.8736 144.948 20.2834C144.468 20.3734 143.948 20.4834 143.508 20.5634C142.615 20.7143 141.764 21.0525 141.011 21.5558C140.257 22.059 139.619 22.716 139.138 23.4835L138.828 23.9134L138.758 23.9234Z" fill="black"/>
<path d="M178.678 47.9734L172.838 47.5834C170.688 47.4234 168.538 47.2434 166.388 47.1034C166.192 47.1109 165.999 47.0544 165.839 46.9425C165.678 46.8307 165.558 46.6695 165.498 46.4834C164.498 44.3834 163.498 42.2734 162.408 40.2134C161.687 38.7971 160.612 37.5914 159.288 36.7134C158.962 36.5003 158.687 36.2176 158.483 35.8857C158.279 35.5537 158.151 35.1807 158.108 34.7934C157.538 31.5034 153.738 28.7934 150.738 29.4934C150.117 29.6516 149.537 29.9415 149.038 30.3434C148.849 30.4698 148.696 30.6421 148.592 30.844C148.488 31.0459 148.437 31.2709 148.444 31.4978C148.451 31.7247 148.516 31.9461 148.632 32.1413C148.748 32.3364 148.912 32.4989 149.108 32.6134C149.468 32.8934 149.898 33.0934 150.288 33.3434C152.068 34.4534 152.288 36.0634 151.018 37.6834C150.886 37.8632 150.705 38.0019 150.498 38.0834C148.837 38.6812 147.041 38.7956 145.318 38.4134C144.641 38.2432 144.015 37.9126 143.493 37.4497C142.971 36.9867 142.568 36.4049 142.318 35.7534C140.718 31.8934 141.938 26.0834 144.968 23.2334C146.998 21.426 149.575 20.352 152.288 20.1834C166.288 18.7034 174.658 28.2334 177.138 36.5634C177.665 38.7186 178.046 40.9069 178.278 43.1134C178.448 44.2334 178.538 45.3634 178.648 46.4934C178.638 46.9534 178.648 47.4134 178.678 47.9734Z" fill="black"/>
</g>
</svg>
