<svg width="102" height="1092" viewBox="0 0 102 1092" fill="none" xmlns="http://www.w3.org/2000/svg">
<path d="M11.3513 329.009L15.5514 333.219C24.3243 341.989 31.2834 352.401 36.0311 363.861C40.7788 375.321 43.2221 387.605 43.2213 400.009V566.479C43.219 567.696 42.8566 568.884 42.1795 569.895C41.5025 570.906 40.5413 571.694 39.4171 572.159C38.2929 572.625 37.0562 572.746 35.8628 572.51C34.6694 572.273 33.5727 571.688 32.7113 570.829L27.7113 565.829C18.8668 556.994 11.8635 546.492 7.10691 534.931C2.35036 523.37 -0.0647846 510.98 0.00132124 498.479L0.841287 333.319C0.851398 332.106 1.2196 330.923 1.89964 329.918C2.57968 328.913 3.54135 328.131 4.66392 327.671C5.78649 327.211 7.01998 327.092 8.20969 327.33C9.39941 327.568 10.4923 328.152 11.3513 329.009Z" fill="#F2F2F2"/>
<path d="M90.0907 257.759L85.8907 261.969C77.1178 270.739 70.1586 281.151 65.4109 292.611C60.6632 304.071 58.2199 316.354 58.2207 328.759V495.209C58.223 496.426 58.5855 497.614 59.2626 498.625C59.9396 499.636 60.9007 500.424 62.0249 500.889C63.1491 501.355 64.3859 501.477 65.5793 501.24C66.7727 501.003 67.8693 500.418 68.7307 499.559L73.7307 494.559C82.5595 485.729 89.5507 475.237 94.3 463.689C99.0494 452.141 101.463 439.766 101.401 427.279L100.561 262.119C100.553 260.91 100.189 259.729 99.5145 258.726C98.8402 257.722 97.8854 256.938 96.7689 256.473C95.6525 256.008 94.4239 255.882 93.2363 256.111C92.0488 256.34 90.9547 256.913 90.0907 257.759Z" fill="#F2F2F2"/>
<path d="M11.3513 73.0091L15.5514 77.2191C24.3243 85.9889 31.2834 96.4012 36.0311 107.861C40.7788 119.321 43.2221 131.605 43.2213 144.009V310.479C43.219 311.696 42.8566 312.884 42.1795 313.895C41.5025 314.906 40.5413 315.694 39.4171 316.159C38.2929 316.625 37.0562 316.747 35.8628 316.51C34.6694 316.273 33.5727 315.688 32.7113 314.829L27.7113 309.829C18.8668 300.994 11.8635 290.492 7.10691 278.931C2.35036 267.37 -0.0647846 254.98 0.00132124 242.479L0.841287 77.3191C0.851398 76.1059 1.2196 74.9226 1.89964 73.9178C2.57968 72.913 3.54135 72.1314 4.66392 71.6711C5.78649 71.2107 7.01998 71.0921 8.20969 71.3302C9.39941 71.5682 10.4923 72.1523 11.3513 73.0091Z" fill="#F2F2F2"/>
<path d="M90.0907 1.75906L85.8907 5.96907C77.1178 14.7388 70.1586 25.1512 65.4109 36.6112C60.6632 48.0713 58.2199 60.3545 58.2207 72.7591V239.209C58.223 240.426 58.5855 241.614 59.2626 242.625C59.9396 243.636 60.9007 244.424 62.0249 244.889C63.1491 245.355 64.3859 245.477 65.5793 245.24C66.7727 245.003 67.8693 244.418 68.7307 243.559L73.7307 238.559C82.5595 229.729 89.5507 219.237 94.3 207.689C99.0494 196.141 101.463 183.766 101.401 171.279L100.561 6.11906C100.553 4.90971 100.189 3.72948 99.5145 2.72552C98.8402 1.72156 97.8854 0.938288 96.7689 0.47337C95.6525 0.0084517 94.4239 -0.117551 93.2363 0.111081C92.0488 0.339712 90.9547 0.912861 90.0907 1.75906Z" fill="#F2F2F2"/>
<path d="M11.3513 848.009L15.5514 852.219C24.3243 860.989 31.2834 871.401 36.0311 882.861C40.7788 894.321 43.2221 906.604 43.2213 919.009V1085.48C43.219 1086.7 42.8566 1087.88 42.1795 1088.9C41.5025 1089.91 40.5413 1090.69 39.4171 1091.16C38.2929 1091.62 37.0562 1091.75 35.8628 1091.51C34.6694 1091.27 33.5727 1090.69 32.7113 1089.83L27.7113 1084.83C18.8668 1075.99 11.8635 1065.49 7.10691 1053.93C2.35036 1042.37 -0.0647846 1029.98 0.00132124 1017.48L0.841287 852.319C0.851398 851.106 1.2196 849.923 1.89964 848.918C2.57968 847.913 3.54135 847.131 4.66392 846.671C5.78649 846.211 7.01998 846.092 8.20969 846.33C9.39941 846.568 10.4923 847.152 11.3513 848.009Z" fill="#F2F2F2"/>
<path d="M90.0907 776.759L85.8907 780.969C77.1178 789.739 70.1586 800.151 65.4109 811.611C60.6632 823.071 58.2199 835.355 58.2207 847.759V1014.21C58.223 1015.43 58.5855 1016.61 59.2626 1017.63C59.9396 1018.64 60.9007 1019.42 62.0249 1019.89C63.1491 1020.35 64.3859 1020.48 65.5793 1020.24C66.7727 1020 67.8693 1019.42 68.7307 1018.56L73.7307 1013.56C82.5595 1004.73 89.5507 994.237 94.3 982.689C99.0494 971.141 101.463 958.766 101.401 946.279L100.561 781.119C100.553 779.91 100.189 778.729 99.5145 777.726C98.8402 776.722 97.8854 775.938 96.7689 775.473C95.6525 775.008 94.4239 774.882 93.2363 775.111C92.0488 775.34 90.9547 775.913 90.0907 776.759Z" fill="#F2F2F2"/>
<path d="M11.3513 592.009L15.5514 596.219C24.3243 604.989 31.2834 615.401 36.0311 626.861C40.7788 638.321 43.2221 650.604 43.2213 663.009V829.479C43.219 830.696 42.8566 831.884 42.1795 832.895C41.5025 833.906 40.5413 834.694 39.4171 835.159C38.2929 835.625 37.0562 835.746 35.8628 835.51C34.6694 835.273 33.5727 834.688 32.7113 833.829L27.7113 828.829C18.8668 819.994 11.8635 809.492 7.10691 797.931C2.35036 786.37 -0.0647846 773.98 0.00132124 761.479L0.841287 596.319C0.851398 595.106 1.2196 593.923 1.89964 592.918C2.57968 591.913 3.54135 591.131 4.66392 590.671C5.78649 590.211 7.01998 590.092 8.20969 590.33C9.39941 590.568 10.4923 591.152 11.3513 592.009Z" fill="#F2F2F2"/>
<path d="M90.0907 520.759L85.8907 524.969C77.1178 533.739 70.1586 544.151 65.4109 555.611C60.6632 567.071 58.2199 579.355 58.2207 591.759V758.209C58.223 759.426 58.5855 760.614 59.2626 761.625C59.9396 762.636 60.9007 763.424 62.0249 763.889C63.1491 764.355 64.3859 764.477 65.5793 764.24C66.7727 764.003 67.8693 763.418 68.7307 762.559L73.7307 757.559C82.5595 748.729 89.5507 738.237 94.3 726.689C99.0494 715.141 101.463 702.766 101.401 690.279L100.561 525.119C100.553 523.91 100.189 522.729 99.5145 521.726C98.8402 520.722 97.8854 519.938 96.7689 519.473C95.6525 519.008 94.4239 518.882 93.2363 519.111C92.0488 519.34 90.9547 519.913 90.0907 520.759Z" fill="#F2F2F2"/>
</svg>
