<svg width="102" height="837" viewBox="0 0 102 837" fill="none" xmlns="http://www.w3.org/2000/svg">
<path d="M11.3513 329.009L15.5513 333.219C24.3243 341.989 31.2834 352.401 36.0311 363.861C40.7788 375.321 43.2221 387.605 43.2213 400.009V566.479C43.219 567.696 42.8565 568.884 42.1795 569.895C41.5025 570.906 40.5413 571.694 39.4171 572.159C38.2929 572.625 37.0561 572.747 35.8627 572.51C34.6693 572.273 33.5728 571.688 32.7113 570.829L27.7113 565.829C18.8669 556.994 11.8635 546.492 7.10696 534.931C2.3504 523.37 -0.0647847 510.98 0.00132121 498.479L0.841318 333.319C0.851429 332.106 1.21961 330.923 1.89965 329.918C2.57969 328.913 3.54131 328.131 4.66387 327.671C5.78644 327.211 7.01995 327.092 8.20966 327.33C9.39938 327.568 10.4923 328.152 11.3513 329.009Z" fill="#F2F2F2"/>
<path d="M11.3513 593.278L15.5513 597.488C24.3243 606.257 31.2834 616.67 36.0311 628.13C40.7788 639.59 43.2221 651.873 43.2213 664.278V830.748C43.219 831.964 42.8565 833.153 42.1795 834.164C41.5025 835.175 40.5413 835.963 39.4171 836.428C38.2929 836.893 37.0561 837.015 35.8627 836.778C34.6693 836.542 33.5728 835.957 32.7113 835.098L27.7113 830.098C18.8669 821.263 11.8635 810.761 7.10696 799.2C2.3504 787.639 -0.0647847 775.249 0.00132121 762.748L0.841318 597.588C0.851429 596.374 1.21961 595.191 1.89965 594.186C2.57969 593.182 3.54131 592.4 4.66387 591.94C5.78644 591.479 7.01995 591.361 8.20966 591.599C9.39938 591.837 10.4923 592.421 11.3513 593.278Z" fill="#F2F2F2"/>
<path d="M90.0912 257.759L85.8912 261.969C77.1182 270.739 70.1591 281.151 65.4114 292.611C60.6637 304.071 58.2204 316.355 58.2212 328.759V495.209C58.2235 496.426 58.586 497.614 59.263 498.625C59.94 499.636 60.9012 500.424 62.0254 500.889C63.1496 501.355 64.3864 501.477 65.5798 501.24C66.7732 501.003 67.8697 500.418 68.7312 499.559L73.7312 494.559C82.56 485.729 89.5512 475.237 94.3005 463.689C99.0499 452.141 101.463 439.766 101.401 427.279L100.561 262.119C100.553 260.91 100.189 259.729 99.515 258.726C98.8407 257.722 97.8859 256.938 96.7694 256.473C95.653 256.008 94.4244 255.882 93.2368 256.111C92.0492 256.34 90.9552 256.913 90.0912 257.759Z" fill="#F2F2F2"/>
<path d="M11.3513 73.0091L15.5513 77.2191C24.3243 85.9889 31.2834 96.4013 36.0311 107.861C40.7788 119.321 43.2221 131.605 43.2213 144.009V310.479C43.219 311.696 42.8565 312.884 42.1795 313.895C41.5025 314.906 40.5413 315.694 39.4171 316.159C38.2929 316.625 37.0561 316.747 35.8627 316.51C34.6693 316.273 33.5728 315.688 32.7113 314.829L27.7113 309.829C18.8669 300.994 11.8635 290.492 7.10696 278.931C2.3504 267.37 -0.0647847 254.98 0.00132121 242.479L0.841318 77.3191C0.851429 76.1059 1.21961 74.9226 1.89965 73.9178C2.57969 72.913 3.54131 72.1314 4.66387 71.6711C5.78644 71.2107 7.01995 71.0921 8.20966 71.3302C9.39938 71.5682 10.4923 72.1523 11.3513 73.0091Z" fill="#F2F2F2"/>
<path d="M90.0912 1.75909L85.8912 5.96905C77.1182 14.7388 70.1591 25.1512 65.4114 36.6113C60.6637 48.0713 58.2204 60.3545 58.2212 72.7591V239.209C58.2235 240.426 58.586 241.614 59.263 242.625C59.94 243.636 60.9012 244.424 62.0254 244.889C63.1496 245.355 64.3864 245.477 65.5798 245.24C66.7732 245.003 67.8697 244.418 68.7312 243.559L73.7312 238.559C82.56 229.729 89.5512 219.237 94.3005 207.689C99.0499 196.141 101.463 183.766 101.401 171.279L100.561 6.11907C100.553 4.90972 100.189 3.72948 99.515 2.72552C98.8407 1.72156 97.8859 0.9383 96.7694 0.473381C95.653 0.00846317 94.4244 -0.117554 93.2368 0.111077C92.0492 0.339708 90.9552 0.912888 90.0912 1.75909Z" fill="#F2F2F2"/>
<path d="M90.0912 520.759L85.8912 524.969C77.1182 533.739 70.1591 544.151 65.4114 555.611C60.6637 567.071 58.2204 579.354 58.2212 591.759V758.209C58.2235 759.426 58.586 760.614 59.263 761.625C59.94 762.636 60.9012 763.424 62.0254 763.889C63.1496 764.354 64.3864 764.477 65.5798 764.24C66.7732 764.003 67.8697 763.418 68.7312 762.559L73.7312 757.559C82.56 748.729 89.5512 738.237 94.3005 726.689C99.0499 715.14 101.463 702.766 101.401 690.279L100.561 525.119C100.553 523.91 100.189 522.729 99.515 521.725C98.8407 520.722 97.8859 519.938 96.7694 519.473C95.653 519.008 94.4244 518.882 93.2368 519.111C92.0492 519.34 90.9552 519.913 90.0912 520.759Z" fill="#F2F2F2"/>
</svg>
